# xmcd
#
# Track frame offsets:
#	150
#	22073
#	50535
#	75353
#	97983
#	133673
#	158963
#	185715
#	211098
#	229425
#	249875
#	269943
#	289323
#
# Disc length: 4271
#
# Revision: 5
# Processed by: cddbd v1.5.1PL0 Copyright (c) Steve Scherf et al.
# Submitted via: ExactAudioCopy v0.90b4
# Normalized: r4:DSETVAR1
#
DISCID=bd10ad0d
DTITLE=Various Artist - Street Jams: Hip-Hop From The Top Part 2
DYEAR=1992
DGENRE=Hip-Hop
TTITLE0=Grandmaster Flash - Scorpio
TTITLE1=Run DMC - It's Like That
TTITLE2=Rock Master Scott - The Roof Is On Fire (Club Dj)
TTITLE3=Whodini - Five Minutes Of Funk
TTITLE4=Kurtis Blow - 8 Million Stories
TTITLE5=Boogie Boys - A Fly Girl
TTITLE6=Fat Boys - Can You Feel It
TTITLE7=Kurtis Blow - Basketball
TTITLE8=Whodini - Big Mouth (Beat Box Mix)
TTITLE9=UTFO - Roxanne, Roxanne
TTITLE10=Roxanne with UTFO - The Real Roxanne
TTITLE11=Shawn Brown - Rappin' Duke
TTITLE12=Dr. Jeckyll and Mr. Hyde - Genius Rap
EXTD=
EXTT0=
EXTT1=
EXTT2=
EXTT3=
EXTT4=
EXTT5=
EXTT6=
EXTT7=
EXTT8=
EXTT9=
EXTT10=
EXTT11=
EXTT12=
PLAYORDER=
